# xmcd
#
# Track frame offsets:
#	150
#	16930
#	30345
#	32647
#	49864
#	59905
#	76500
#	91190
#	109171
#	109802
#	126478
#	139178
#	152829
#	154594
#	169444
#	184624
#	201518
#	217981
#
# Disc length: 3118 seconds
#
# Revision: 1
# Processed by: cddbd v1.5.2PL0 Copyright (c) Steve Scherf et al.
# Submitted via: audiograbber 1.83.01
#
DISCID=f40c2c12
DTITLE=Hillcrest  - Hillcrest Pure Country 84
DYEAR=2017
DGENRE=Country
TTITLE0=Don´t Fly Too High -Jade Hurley
TTITLE1=Evry Night You Made my Day -Darnell Miller
TTITLE2=Laura Radio Liner -Laura Mendens
TTITLE3=In The Palm Of Your Hand -Laura Mendens
TTITLE4=Baby Are You Getting Tired Of Me -Graeme Clark
TTITLE5=I´m Gonna Love You trough It -Robert Mizzell
TTITLE6=Ashes In The Wind -Andy Martin 
TTITLE7=Nothing Like This Fool -Tony Clarke
TTITLE8=Clelie Radio Liner -Clelie Adams 
TTITLE9=Somewhere In The Middle -Clelie Adams
TTITLE10=Fountain Of Love -David McLachlan
TTITLE11=Father From The Throuth -Lexie Sims
TTITLE12=Otis Radio Liner -Otis C Truax
TTITLE13=I Can´t Go Home To Heaven -Otis C Truax
TTITLE14=Heart On Down -Taylor Renee
TTITLE15=Traveling With You -Lloyd Back
TTITLE16=Hurtin´ Over You -Vanessa Bourne
TTITLE17=All Abouth Loveing You -Anastasia
EXTD=
EXTT0=
EXTT1=
EXTT2=
EXTT3=
EXTT4=
EXTT5=
EXTT6=
EXTT7=
EXTT8=
EXTT9=
EXTT10=
EXTT11=
EXTT12=
EXTT13=
EXTT14=
EXTT15=
EXTT16=
EXTT17=
PLAYORDER=
